<?xml version="1.0" encoding="utf-8"?>
<!-- Generator: Adobe Illustrator 16.0.0, SVG Export Plug-In . SVG Version: 6.00 Build 0)  -->
<!DOCTYPE svg PUBLIC "-//W3C//DTD SVG 1.1//EN" "http://www.w3.org/Graphics/SVG/1.1/DTD/svg11.dtd">
<svg version="1.1" id="Layer_1" xmlns="http://www.w3.org/2000/svg" xmlns:xlink="http://www.w3.org/1999/xlink" x="0px" y="0px"
	 width="800px" height="800px" viewBox="0 0 800 800" enable-background="new 0 0 800 800" xml:space="preserve">
<g>
	<path fill="#006A6B" d="M320.45,125.956c8.01,3.814,8.82,12.039,2.432,24.673c-5.912,11.68-14.542,21.478-25.889,29.393
		l-16.163,11.872c-6.532,4.815-11.777,8.2-15.734,10.155c-11.299,5.578-18.117,2.765-20.454-8.439
		c-3.146-15.161-4.982-33.088-5.507-53.779c-0.572-22.885,1.264-35.043,5.507-36.473c3.767-1.24,15.281,1.168,34.543,7.223
		C296.777,116.11,310.533,121.236,320.45,125.956"/>
	<path fill="#006A6B" d="M565.82,102.499c3.385,2.956,4.648,16.902,3.791,41.837c-0.764,23.504-2.646,41.717-5.65,54.638
		c-1.238,5.482-7.223,5.268-17.951-0.645c-9.297-5.053-20.404-13.278-33.326-24.672c-12.301-10.871-22.217-20.978-29.75-30.323
		c-8.15-10.107-10.607-15.901-7.365-17.378c8.057-3.814,24.174-9.059,48.346-15.734C549.611,103.119,563.58,100.543,565.82,102.499"
		/>
	<path fill="#005454" d="M240.78,111.51c1.096,6.437,2.741,13.612,4.934,21.526c4.387,15.876,9.297,27.581,14.732,35.114
		l-15.804,25.459c-1.573-9.868-2.932-20.691-4.076-32.468C238.325,137.637,238.396,121.093,240.78,111.51"/>
	<path fill="#005454" d="M568.824,110.723c2.049,14.351,1.859,33.374-0.572,57.069c-1.238,11.824-2.67,22.218-4.291,31.182
		c-0.619-2.194-3.266-7.438-7.938-15.734l-6.865-11.872c3.385-3.051,7.676-14.088,12.873-33.111
		C564.652,128.769,566.916,119.591,568.824,110.723"/>
	<path fill="#0D131A" d="M329.747,128.102c2.86,1.955,3.981,3.313,3.361,4.076c-0.62,0.715-2.48,0.286-5.578-1.287
		c-10.966-5.483-26.151-11.038-45.556-16.663c-20.788-6.008-32.708-7.843-35.758-5.507c-2.956,2.288-3.838,16.568-2.646,42.838
		c1.144,24.935,2.956,42.051,5.435,51.349c1.048,3.766,0.977,5.793-0.215,6.079c-1.192,0.238-2.455-1.478-3.79-5.149
		c-1.288-3.624-2.742-10.417-4.362-20.382c-1.717-10.68-3.004-21.383-3.862-32.111c-2.193-28.702-0.357-44.769,5.507-48.201
		c5.531-3.243,19.691-1.288,42.481,5.864C305.979,115.682,320.975,122.046,329.747,128.102"/>
	<path fill="#0D131A" d="M567.037,99.352c4.863,2.813,6.982,18.165,6.365,46.057c-0.621,27.51-3.268,46.676-7.939,57.499
		c-2.479,5.864-4.195,8.51-5.146,7.938c-0.908-0.572-0.406-3.671,1.5-9.297c2.479-7.39,3.934-24.935,4.361-52.636
		c0.479-27.557-0.357-42.076-2.502-43.553c-2.242-1.526-16.545,1.359-42.91,8.653c-25.363,7.057-42.506,12.587-51.42,16.592
		c-3.387,1.526-5.389,1.813-6.008,0.859s0.668-2.384,3.861-4.291c7.867-4.768,25.27-11.085,52.207-18.952
		C547.299,100.114,563.174,97.159,567.037,99.352"/>
	<path fill="#006A6B" d="M517.977,333.423c-31.609,19.215-71.301,28.821-119.074,28.821c-50.585,0-90.85-11.347-120.791-34.042
		c-13.827-10.489-24.387-22.837-31.682-37.045c-7.199-14.017-10.799-29.107-10.799-45.27c0-45.293,17.402-79.787,52.207-103.483
		c29.465-20.024,66.796-30.037,111.994-30.037c21.883,0,42.67,2.479,62.362,7.438c20.979,5.292,39.311,13.063,54.996,23.314
		c35.996,23.552,53.994,56.902,53.994,100.051C571.184,281.742,553.447,311.826,517.977,333.423"/>
	<path fill="#FDEABE" d="M548.369,246.174c0,12.206-4.004,24.672-12.014,37.403c-7.867,12.539-18.736,23.981-32.611,34.328
		c-14.35,10.68-30.369,19.023-48.061,25.031c-19.021,6.484-38.45,9.726-58.283,9.726c-40.479,0-74.353-11.205-101.625-33.613
		c-12.063-9.869-21.407-21.073-28.034-33.612c-6.58-12.396-9.869-24.863-9.869-37.403c0-32.563,11.943-59.31,35.83-80.241
		c9.154-8.057,19.381-14.541,30.68-19.452c9.773-4.244,18.689-6.699,26.747-7.366c1.001-0.096,9.511,3.79,25.531,11.657
		l23.743,11.799l25.532-10.513c17.545-7.008,27.676-10.513,30.395-10.513c8.152,0,17.354,2.384,27.604,7.151
		c10.871,5.006,20.932,11.801,30.182,20.382C536.953,192.156,548.369,217.234,548.369,246.174"/>
	<path fill="#FFFFFF" d="M347.481,228.725c0.525-2.718,1.24-5.459,2.146-8.225c1.812-5.531,3.648-8.486,5.507-8.868
		c1.955-0.43,4.268,1.43,6.937,5.578c2.289,3.528,3.6,6.293,3.934,8.296c0.191,1.144-2.836,2.026-9.083,2.646L347.481,228.725"/>
	<path fill="#FFFFFF" d="M435.446,226.078l3.146-6.651c2.576-4.386,4.984-6.389,7.227-6.008c2.285,0.381,4.025,3.195,5.219,8.439
		l1.074,7.795L435.446,226.078"/>
	<path fill="#0D131A" d="M557.525,288.44c6.674-12.777,10.012-26.055,10.012-39.834c0-41.575-14.828-74.114-44.482-97.619
		c-29.654-23.504-70.729-35.257-123.222-35.257c-50.252,0-89.586,11.848-118.001,35.544c-28.368,23.743-42.552,56.592-42.552,98.548
		c0,14.065,3.17,27.462,9.511,40.192c6.628,13.397,16.354,25.103,29.178,35.115c29.227,22.933,69.848,34.399,121.864,34.399
		c53.828,0,96.189-11.8,127.083-35.4C540.313,313.876,550.516,301.98,557.525,288.44 M574.33,248.605
		c0,14.542-3.48,28.559-10.439,42.052c-7.391,14.256-18.07,26.795-32.039,37.617c-32.184,24.888-76.188,37.332-132.019,37.332
		c-54.019,0-96.213-12.086-126.583-36.259c-13.303-10.584-23.434-22.957-30.395-37.117c-6.58-13.444-9.87-27.581-9.87-42.409
		c0-43.1,14.947-76.951,44.841-101.552c29.75-24.506,70.419-36.759,122.006-36.759c54.637,0,97.333,11.967,128.084,35.901
		C558.859,171.535,574.33,205.267,574.33,248.605"/>
	<path fill="#0D131A" d="M550.875,246.174c0,12.873-3.697,25.77-11.086,38.69c-7.391,12.921-17.736,24.554-31.039,34.9
		c-13.922,10.822-29.846,19.261-47.771,25.316c-19.311,6.484-39.691,9.726-61.146,9.726c-47.296,0-84.341-12.849-111.136-38.547
		c-10.823-10.394-19.095-22.193-24.816-35.4c-5.149-11.824-7.724-23.386-7.724-34.685c0-30.18,11.395-56.212,34.185-78.095
		c9.44-9.059,19.81-16.21,31.109-21.455c10.774-5.006,20.764-7.509,29.965-7.509l1.288,0.286
		c9.679,5.435,19.762,10.608,30.251,15.519c9.249,4.338,14.875,6.699,16.877,7.08c1.907-0.143,8.272-2.36,19.094-6.651
		c11.205-4.481,22.98-9.512,35.33-15.09l1.215-0.214c8.201,0,17.592,2.479,28.178,7.438c11.252,5.244,21.693,12.325,31.322,21.24
		C538.908,190.797,550.875,216.615,550.875,246.174 M533.709,282.647c7.295-12.253,10.943-24.411,10.943-36.473
		c0-28.32-11.516-53.065-34.543-74.234c-9.059-8.296-18.832-14.946-29.32-19.953c-9.633-4.577-17.904-6.913-24.816-7.008
		l-30.607,12.586c-14.686,5.817-23.195,8.725-25.533,8.725c-1.573,0-7.652-2.455-18.236-7.366
		c-6.341-2.956-16.616-7.914-30.824-14.875c-10.06,0.096-20.382,2.861-30.966,8.296c-10.441,5.34-19.953,12.658-28.535,21.956
		c-8.964,9.679-15.948,20.477-20.954,32.397c-5.436,12.825-8.153,25.984-8.153,39.477c0,10.632,2.455,21.55,7.366,32.754
		c5.53,12.444,13.469,23.553,23.814,33.327c25.698,24.267,61.194,36.402,106.487,36.402c20.025,0,39.213-3.076,57.571-9.226
		c17.115-5.674,32.422-13.636,45.914-23.887C516.283,305.724,526.416,294.757,533.709,282.647"/>
	<path fill="#0D131A" d="M301.068,195.398c-3.099,0.762-4.792,0.62-5.078-0.43c-0.333-1.001,0.977-2.074,3.933-3.218
		c8.964-3.433,20.144-5.531,33.542-6.293c13.445-0.762,24.053,0.143,31.824,2.718c2.861,0.954,4.196,1.955,4.005,3.003
		c-0.191,1.049-1.74,1.24-4.649,0.572c-8.486-1.859-18.356-2.431-29.607-1.717C324.312,190.702,312.987,192.49,301.068,195.398"/>
	<path fill="#0D131A" d="M499.953,190.893c2.242,1.525,3.006,2.836,2.289,3.934c-0.715,1.096-2.193,0.881-4.434-0.645
		c-5.244-3.527-15.258-5.745-30.037-6.65c-14.828-0.954-27.059-0.143-36.688,2.431c-1.955,0.525-3.074,0.215-3.361-0.93
		c-0.334-1.144,0.477-2.026,2.432-2.646c10.586-3.385,23.242-4.577,37.977-3.576C482.768,183.812,493.375,186.506,499.953,190.893"
		/>
	<path fill="#0D131A" d="M450.537,227.651c2.525,0.811,3.719,1.764,3.574,2.861c-0.143,1.049-1.479,1.263-4.004,0.644
		c-10.775-2.527-26.439-3.838-46.986-3.934c-20.5-0.143-38.452,0.978-53.852,3.361c-2.336,0.381-3.671,0.072-4.005-0.93
		c-0.333-0.953,0.644-1.692,2.932-2.217c14.112-3.528,31.825-5.292,53.136-5.292C422.885,222.145,439.285,223.98,450.537,227.651"/>
	<path fill="#0D131A" d="M355.921,214.493c-1.145,0.238-2.384,1.955-3.719,5.149c-1.383,3.242-1.979,6.055-1.788,8.439
		c-2.622,1.334-3.958,1.43-4.005,0.286c-0.191-2.909,0.334-6.412,1.573-10.513c1.526-4.958,3.528-7.891,6.007-8.797
		c2.336-0.858,5.221,1.073,8.653,5.793c3.004,4.148,4.768,7.604,5.292,10.369c0.143,0.812-0.477,1.407-1.86,1.788
		c-1.43,0.334-2.217,0.096-2.36-0.715c-0.477-2.67-1.597-5.364-3.361-8.081C358.59,215.541,357.113,214.302,355.921,214.493"/>
	<path fill="#0D131A" d="M447.176,210.13c2.383,0.62,4.146,3.218,5.293,7.795c0.811,3.385,1.215,7.366,1.215,11.943l-1.93,0.071
		c-1.289-0.715-1.91-1.406-1.861-2.073c0.24-1.955-0.117-4.315-1.07-7.081c-0.955-2.861-2.053-4.362-3.291-4.505
		c-1.191-0.286-2.717,0.667-4.576,2.861c-1.86,2.192-3.195,4.625-4.006,7.294c-0.238,0.811-0.904,1.216-2.003,1.216
		c-1.048,0-1.502-0.429-1.356-1.287c0.763-4.815,2.764-8.939,6.007-12.372C442.551,210.893,445.076,209.605,447.176,210.13"/>
	<path fill="#006A6B" d="M194.868,320.265l27.105,163.557c-6.484,5.578-19,13.898-37.546,24.96
		c-20.358,12.11-37.379,21.024-51.063,26.745c-18.88,7.867-34.947,12.588-48.202,14.16c-17.927,2.1-29.464-1.811-34.614-11.729
		c-10.203-19.643-11.562-40.43-4.077-62.359c6.58-19.453,21.05-42.123,43.411-68.014c14.017-16.209,32.039-33.111,54.066-50.704
		C160.874,343.341,177.847,331.135,194.868,320.265"/>
	<path fill="#006A6B" d="M651.998,353.877c24.029,18.927,43.146,36.831,57.354,53.708c22.219,26.414,36.855,48.013,43.912,64.794
		c10.25,24.411,8.914,45.629-4.006,63.648c-9.297,13.018-25.314,16.832-48.059,11.443c-7.629-1.813-16.234-4.721-25.816-8.726
		l-18.523-8.153c-8.152-3.386-20.668-10.059-37.545-20.023c-15.926-9.393-30.203-18.381-42.84-26.961l23.529-166.204
		C615.883,326.892,633.213,339.05,651.998,353.877"/>
	<path fill="#005454" d="M221.399,439.268c2.431,3.385,4.172,8.416,5.22,15.09c1.145,6.961,1.145,13.396,0,19.311
		c-1.287,6.864-3.933,11.633-7.938,14.305c-59.263,39.332-101.243,59.689-125.94,61.073c-15.542,0.856-26.27-0.739-32.182-4.793
		c-1.859-1.237-3.146-2.669-3.862-4.29l-0.429-2.004c19.881-9.771,41.336-21.286,64.364-34.541
		c46.104-26.46,77.142-48.298,93.114-65.509C216.274,435.189,218.826,435.645,221.399,439.268"/>
	<path fill="#005454" d="M569.826,444.202c2.432-1.86,6.482-0.022,12.156,5.507c12.301,12.063,42.506,31.253,90.611,57.568
		c24.029,13.209,46.842,25.176,68.439,35.902c-4.959,3.193-11.465,4.959-19.523,5.291c-11.107,0.479-24.459-1.836-40.049-6.937
		c-15.018-4.959-35.043-14.708-60.072-29.25c-18.262-10.632-31.777-19.119-40.551-25.461c-2.861-2.048-5.602-6.294-8.225-12.729
		c-2.527-6.148-4.125-12.133-4.791-17.949C567.107,449.805,567.775,445.823,569.826,444.202"/>
	<path fill="#0D131A" d="M599.432,319.836c-7.484-4.196-10.867-6.747-10.152-7.653c0.715-0.905,5.006,0.43,12.873,4.005
		c30.369,13.875,61.979,37.665,94.83,71.373c15.209,15.542,28.152,30.966,38.834,46.271c11.201,16.114,18.783,30.466,22.74,43.052
		c3.434,10.871,3.17,24.128-0.787,39.765c-4.006,15.877-9.918,26.246-17.736,31.108c-10.535,6.484-25.625,7.486-45.27,3.005
		c-31.752-7.246-71.158-28.512-118.215-63.793c-5.578-4.195-7.867-6.984-6.867-8.367c0.955-1.431,4.291-0.166,10.016,3.791
		c48.15,33.135,87.344,53.541,117.568,61.217c18.357,4.625,31.637,4.41,39.836-0.643c6.295-3.861,11.014-11.777,14.16-23.744
		c3.48-13.111,3.553-26.604,0.215-40.479c-5.627-23.221-25.842-52.206-60.646-86.963c-14.826-14.828-30.49-28.702-46.986-41.623
		C627.586,337.38,612.783,327.274,599.432,319.836"/>
	<path fill="#0D131A" d="M713.5,545.54c1.908-0.953,4.148-1.336,6.723-1.146c2.48,0.191,4.555,0.883,6.225,2.074l1.93,1.573
		c0.525,0.62,0.74,1.265,0.646,1.931c-0.48,3.387-2.17,6.795-5.078,10.229c-2.434,2.957-4.125,4.434-5.078,4.434
		c-2.289,0-4.41-2.145-6.365-6.437c-1.525-3.433-2.289-6.032-2.289-7.796C710.211,548.307,711.309,546.686,713.5,545.54"/>
	<path fill="#FFFFFF" d="M718.436,549.045c2.861,0.096,4.602,0.689,5.223,1.787c0.57,1.002-0.072,2.79-1.934,5.363
		c-1.764,2.385-3.051,3.647-3.861,3.789c-0.57,0-1.5-1.356-2.789-4.074c-1.381-2.813-1.881-4.648-1.5-5.508
		C713.953,549.402,715.576,548.95,718.436,549.045"/>
	<path fill="#0D131A" d="M741.248,536.1l4.578,0.287c1.098,0.571,1.836,1.454,2.217,2.646c1.336,3.434,2.051,7.225,2.146,11.372
		c0.047,4.242-0.596,6.818-1.932,7.725c-2.051,1.334-5.268,0.596-9.654-2.218c-4.434-2.86-6.891-5.84-7.365-8.938
		c-0.43-2.385,0.523-4.697,2.859-6.938C736.1,538.174,738.482,536.863,741.248,536.1"/>
	<path fill="#FFFFFF" d="M743.682,540.749c1,0.144,1.74,2.455,2.217,6.938c0.43,4.385,0.285,6.842-0.43,7.364
		c-0.668,0.429-2.385-0.522-5.148-2.86c-2.859-2.43-4.314-4.268-4.361-5.506c-0.049-1.24,0.953-2.6,3.004-4.076
		C740.916,541.178,742.49,540.559,743.682,540.749"/>
	<path fill="#0D131A" d="M751.404,521.797c2.336-0.904,4.48-0.548,6.436,1.073c2.576,2.001,4.77,5.506,6.58,10.512
		c1.813,5.056,2.051,8.249,0.717,9.585c-1.145,1.143-3.934,1.334-8.367,0.571c-4.674-0.763-8.486-2.267-11.443-4.507l-1.432-1.286
		c-0.381-0.524-0.57-1.192-0.57-2.003l0.07-1.358c0.334-2.384,1.168-4.745,2.504-7.079
		C747.471,524.491,749.307,522.655,751.404,521.797"/>
	<path fill="#FFFFFF" d="M754.336,527.232c1.049,0.095,2.719,2.121,5.006,6.078c2.338,3.91,3.242,6.271,2.719,7.08
		c-0.43,0.764-2.646,0.334-6.65-1.287c-3.91-1.572-6.078-2.767-6.508-3.576c-0.477-0.953-0.07-2.598,1.217-4.936
		C751.5,528.162,752.906,527.041,754.336,527.232"/>
	<path fill="#0D131A" d="M752.906,508.064c1.717-1.334,3.693-1.523,5.936-0.57c3.385,1.479,6.605,4.457,9.654,8.939
		c3.1,4.479,4.102,7.578,3.004,9.297c-0.811,1.238-2.646,1.979-5.506,2.218c-3.623,0.331-7.893-0.431-12.801-2.289
		c-1.908-0.763-3.1-2.694-3.576-5.793l-0.145-2.574C749.473,512.855,750.617,509.782,752.906,508.064"/>
	<path fill="#FFFFFF" d="M755.768,511.855c1.238-0.524,3.623,0.93,7.15,4.362c3.434,3.386,5.15,5.794,5.15,7.224
		c0,1.191-2.146,1.406-6.438,0.645c-4.244-0.763-6.627-1.74-7.152-2.932c-0.523-1.241-0.668-2.98-0.428-5.223
		C754.289,513.596,754.861,512.236,755.768,511.855"/>
	<path fill="#0D131A" d="M751.117,501.271l0.287-3.434c0.43-1.906,1.215-3.385,2.359-4.436c1.145-1.002,2.479-1.428,4.004-1.285
		c3.053,0.236,6.986,2.836,11.803,7.794c4.861,5.008,6.459,8.416,4.791,10.229c-1.191,1.284-4.34,1.904-9.441,1.857l-9.512-1.145
		c-1.43-0.524-2.525-1.765-3.289-3.72C751.451,505.42,751.117,503.464,751.117,501.271"/>
	<path fill="#FFFFFF" d="M757.412,496.553c1.096-0.525,3.434,0.905,7.008,4.29c3.48,3.289,5.15,5.41,5.008,6.364
		c-0.145,0.764-2.076,0.955-5.793,0.572c-3.529-0.381-5.816-0.906-6.865-1.573c-0.955-0.619-1.359-2.24-1.217-4.863
		C755.695,498.723,756.314,497.123,757.412,496.553"/>
	<path fill="#0D131A" d="M205.667,315.473c0.811,0.477-0.978,1.931-5.364,4.363c-13.349,7.438-28.129,17.544-44.34,30.322
		c-16.496,12.92-32.158,26.795-46.986,41.623c-34.805,34.757-55.02,63.744-60.646,86.963c-3.624,15.113-4.172,28.345-1.646,39.689
		c2.527,11.349,7.843,19.523,15.949,24.532c8.249,5.054,21.55,5.269,39.905,0.644c30.18-7.678,69.371-28.082,117.573-61.217
		c5.387-3.674,8.558-4.815,9.511-3.435c0.954,1.431-1.168,4.101-6.365,8.011c-39.381,29.702-74.543,49.535-105.486,59.5
		c-26.317,8.438-45.65,8.869-57.999,1.287c-9.536-5.863-15.781-16.64-18.737-32.324c-2.67-14.209-2.075-27.393,1.788-39.549
		c8.582-27.033,28.606-56.402,60.073-88.108c30.704-30.942,62.267-54.186,94.687-69.728
		C202.163,315.854,204.855,314.997,205.667,315.473"/>
	<path fill="#0D131A" d="M89.881,544.109c2.384,1.24,3.576,3.004,3.576,5.293c0,1.479-1.145,4.314-3.434,8.51
		c-2.479,4.482-4.481,6.723-6.007,6.723c-1.668,0-3.886-1.716-6.651-5.148c-2.86-3.528-4.505-6.795-4.935-9.799
		c-0.238-1.715,0.453-3.168,2.074-4.361c2.002-1.383,4.482-2.217,7.438-2.503C85.042,542.536,87.688,542.967,89.881,544.109"/>
	<path fill="#FFFFFF" d="M83.66,560.416c-0.858,0-2.288-1.6-4.291-4.793c-1.954-3.241-2.741-5.361-2.359-6.363
		c0.381-0.906,1.43-1.383,3.146-1.431l5.292,0.428c1.955,0.288,3.099,0.693,3.433,1.218c0,2.098-0.667,4.48-2.002,7.15
		C85.59,559.15,84.518,560.416,83.66,560.416"/>
	<path fill="#0D131A" d="M59.202,536.743c2.575,0.668,5.03,2.026,7.366,4.077c2.765,2.384,3.957,4.673,3.576,6.865l-0.716-0.502
		c-0.476,2.813-3.051,5.697-7.724,8.654c-4.625,2.859-7.771,3.719-9.439,2.573c-1.097-0.763-1.622-3.337-1.573-7.724
		c0.047-4.386,0.62-8.08,1.716-11.084c0.429-1.192,1.168-2.053,2.217-2.574L59.202,536.743"/>
	<path fill="#FFFFFF" d="M56.841,541.035c1.097-0.286,2.789,0.333,5.078,1.857c2.241,1.479,3.504,2.742,3.79,3.791
		c-0.19,1.051-1.763,2.599-4.719,4.649c-2.956,2.001-4.816,2.812-5.579,2.431c-0.811-0.383-1.049-2.504-0.715-6.365
		C55.029,543.489,55.745,541.368,56.841,541.035"/>
	<path fill="#0D131A" d="M49.904,524.014c2.813,1.098,4.792,3.719,5.936,7.866c1.096,3.957,0.834,6.532-0.787,7.726
		c-2.384,1.764-5.841,3.146-10.37,4.146l-8.725-0.285c-1.334-1.336-0.978-4.436,1.073-9.298c1.955-4.721,4.1-8.032,6.436-9.94
		L49.904,524.014"/>
	<path fill="#FFFFFF" d="M46.757,527.732c1.096-0.144,2.36,0.953,3.79,3.289c1.383,2.289,1.931,3.957,1.645,5.006
		c-0.238,0.953-2.169,1.933-5.793,2.933l-6.365,0.358c-0.62-0.812,0.047-2.908,2.002-6.293
		C43.993,529.639,45.565,527.875,46.757,527.732"/>
	<path fill="#0D131A" d="M40.464,508.854l2.789-0.285c0.62,0.188,1.43,0.666,2.431,1.429c2.861,2.146,4.172,5.03,3.934,8.653
		c-0.191,3.385-1.454,5.531-3.791,6.437c-3.099,1.192-6.603,1.955-10.513,2.289c-4.434,0.429-7.057-0.022-7.867-1.358
		c-0.954-1.479-0.095-4.172,2.574-8.082C32.883,513.691,36.363,510.664,40.464,508.854"/>
	<path fill="#FFFFFF" d="M42.682,512.785c1.526,0.523,2.479,1.598,2.861,3.219c0.429,1.62,0.119,3.314-0.93,5.077
		c-0.477,0.812-2.527,1.479-6.15,2.003l-6.15-0.143c-0.572-0.717,0.548-2.694,3.361-5.937
		C38.534,513.62,40.87,512.214,42.682,512.785"/>
	<path fill="#0D131A" d="M28.521,499.912c3.814-5.243,7.771-8.032,11.872-8.367c3.433-0.236,5.363,2.48,5.792,8.153
		c0.429,5.675-1.001,9.13-4.291,10.368c-2.527,0.953-5.006,1.6-7.438,1.933c-3.814,0.571-6.508,0.188-8.082-1.144
		C23.992,508.854,24.707,505.205,28.521,499.912"/>
	<path fill="#FFFFFF" d="M40.394,496.051c0.811,0.811,1.192,2.385,1.144,4.721c-0.047,2.24-0.429,3.838-1.144,4.791
		c-0.62,0.858-2.527,1.526-5.722,2.004l-5.363-0.215c-0.763-1.192,0.214-3.291,2.932-6.293
		C35.054,498.006,37.771,496.338,40.394,496.051"/>
	<path fill="#006A6B" d="M674.596,504.348c0,61.026-28.939,105.534-86.818,133.521c-46.582,22.504-110.564,33.755-191.949,33.755
		c-82.911,0-148.396-14.206-196.455-42.622c-49.489-29.227-74.233-69.967-74.233-122.222c0-37.951,5.769-72.541,17.307-103.771
		c11.681-31.61,28.845-58.667,51.492-81.171c23.219-23.124,51.515-40.74,84.89-52.85c34.709-12.586,73.971-18.88,117.787-18.88
		c90.493,0,159.862,22.861,208.112,68.583C651.305,362.888,674.596,424.773,674.596,504.348"/>
	<path fill="#FDEABE" d="M540.432,278.643c24.508,10.918,43.529,24.005,57.07,39.262c15.496,17.497,23.242,37.236,23.242,59.215
		c0,25.603-8.51,45.413-25.529,59.429c-13.779,11.301-29.68,16.949-47.703,16.949c-8.295,0-30.537-3.003-66.723-9.01
		c-36.234-6.01-63.197-9.012-80.886-9.012c-10.727,0-23.242,1.406-37.545,4.219c-7.915,1.572-21.121,4.673-39.621,9.298
		c-17.544,4.387-31.228,7.485-41.05,9.298c-15.352,2.813-29.25,4.219-41.693,4.219c-24.602,0-43.315-8.271-56.141-24.814
		c-9.583-12.303-14.374-25.891-14.374-40.765c0-22.694,6.269-43.481,18.809-62.362c11.823-17.784,28.677-33.136,50.562-46.056
		c21.025-12.444,45.532-21.979,73.518-28.606c27.605-6.532,56.784-9.797,87.536-9.797c21.836,0,44.625,2.24,68.371,6.722
		C495.115,261.884,519.168,269.155,540.432,278.643"/>
	<path fill="#005454" d="M648.779,597.675C634,614.744,613.568,629.31,587.49,641.372c-50.016,23.075-112.543,34.613-187.587,34.613
		c-35.853,0-70.062-3.101-102.625-9.297c-33.231-6.295-62.41-15.377-87.536-27.248c-26.366-12.492-46.652-27.344-60.86-44.556
		c-15.257-18.402-22.885-38.736-22.885-61.002l3.647,3.647c3.29,3.052,7.056,6.221,11.299,9.51
		c13.636,10.539,29.561,20.19,47.773,28.965c58.309,28.035,128.705,42.052,211.186,42.052c71.088,0,138.336-13.658,201.748-40.979
		c19.834-8.581,38.068-17.998,54.709-28.249c8.344-5.101,14.709-9.367,19.096-12.801C673.5,558.865,664.607,579.414,648.779,597.675
		"/>
	<path fill="#0D131A" d="M601.508,628.142c47.438-27.129,71.158-65.389,71.158-114.784c0-83.959-23.41-148.348-70.23-193.164
		c-46.818-44.865-114.066-67.297-201.746-67.297c-87.679,0-154.903,22.432-201.674,67.296
		c-46.82,44.817-70.229,109.204-70.229,193.165c0,49.396,23.719,87.654,71.158,114.783c47.439,27.128,114.354,40.691,200.745,40.691
		C487.129,668.833,554.068,655.271,601.508,628.142 M680.174,513.357c0,51.11-24.529,90.825-73.59,119.146
		c-49.012,28.272-117.645,42.409-205.895,42.409c-88.251,0-156.834-14.137-205.751-42.409
		c-48.964-28.32-73.447-68.035-73.447-119.146c0-85.008,24.387-150.397,73.161-196.168c48.345-45.341,117.024-68.012,206.037-68.012
		c85.152,0,151.9,20.835,200.244,62.505C653.762,357.215,680.174,424.439,680.174,513.357"/>
	<path fill="#0D131A" d="M601.938,328.417c-10.682-15.066-25.938-28.296-45.771-39.691c-19.785-11.396-42.789-20.168-69.012-26.318
		c-27.08-6.341-55.902-9.511-86.464-9.511c-28.034,0-55.258,2.979-81.671,8.939c-27.748,6.246-52.23,15.256-73.447,27.033
		c-22.885,12.73-40.526,27.891-52.922,45.484c-13.588,19.214-20.382,40.621-20.382,64.222c0,16.114,5.602,29.798,16.806,41.051
		c12.778,12.872,30.299,19.308,52.564,19.308c9.917,0,36.164-4.361,78.739-13.086c42.528-8.772,68.75-13.158,78.667-13.158
		c12.73,0,38.237,3.002,76.522,9.011c38.283,6.007,60.906,9.01,67.867,9.01c23.029,0,41.646-7.698,55.855-23.099
		c12.824-13.922,19.238-30.442,19.238-49.562C618.529,360.504,612.998,343.96,601.938,328.417 M489.369,259.405
		c27.035,6.198,50.682,15.066,70.945,26.604c20.404,11.586,36.115,25.102,47.129,40.549c11.346,16.02,17.021,33.184,17.021,51.492
		c0,20.644-6.963,38.69-20.883,54.138c-15.449,17.068-35.498,25.604-60.146,25.604c-10.395,0-33.564-3.361-69.514-10.085
		c-35.9-6.722-60.859-10.084-74.877-10.084c-10.918,0-37.045,4.625-78.382,13.875c-41.384,9.249-67.726,13.873-79.025,13.873
		c-24.029,0-43.052-7.151-57.07-21.455c-12.349-12.634-18.523-27.748-18.523-45.34c0-21.932,5.769-42.195,17.308-60.789
		c11.204-18.07,27.319-33.732,48.345-46.987c20.93-13.158,45.65-23.242,74.162-30.251c29.131-7.151,60.741-10.727,94.83-10.727
		C432.109,249.821,461.668,253.016,489.369,259.405"/>
	<path fill="#FDEABE" d="M87.665,640.799c-4.529-10.346-6.794-20.571-6.794-30.68c0-32.421,11.038-58.07,33.112-76.951
		c21.169-18.117,48.965-27.176,83.388-27.176c26.699,0,48.798,9.986,66.295,29.965c7.628,8.678,13.541,18.523,17.736,29.536
		c4.1,10.728,6.15,21.503,6.15,32.325c0,11.155-2.146,22.409-6.437,33.755c-4.577,12.206-11.109,23.102-19.595,32.684
		c-20.358,22.98-47.486,34.472-81.385,34.472c-29.083,0-53.351-9.799-72.803-29.395C98.893,660.896,92.336,651.384,87.665,640.799"
		/>
	<path fill="#FDEABE" d="M617.24,499.412c30.131,0,54.447,7.725,72.947,23.172c19.689,16.495,29.535,39.405,29.535,68.728
		c0,12.49-2.598,25.103-7.797,37.831c-5.244,12.919-12.586,24.555-22.025,34.899c-21.646,23.648-48.061,35.473-79.238,35.473
		c-27.414,0-49.918-9.939-67.512-29.822c-7.533-8.581-13.373-18.284-17.521-29.106c-4.006-10.442-6.008-20.859-6.008-31.253
		c0-34.948,9.988-62.481,29.965-82.601C567.609,508.52,590.16,499.412,617.24,499.412"/>
	<path fill="#DACAA5" d="M87.665,621.775c6.58,3.386,13.66,6.484,21.241,9.298c24.172,9.01,48.726,13.517,73.662,13.517
		c24.935,0,49.989-6.294,75.163-18.879c12.587-6.294,22.671-12.588,30.251-18.881c0,7.58-2.122,16.281-6.365,26.102
		c-4.768,11.015-11.299,21.122-19.595,30.323c-21.407,23.648-48.703,35.473-81.886,35.473c-32.087,0-58.095-11.8-78.024-35.4
		c-7.056-8.294-12.682-17.377-16.878-27.247c-3.432-7.963-5.149-14.136-5.149-18.523L87.665,621.775"/>
	<path fill="#DACAA5" d="M519.406,595.387l3.719,6.293c3.529,5.009,7.893,9.607,13.088,13.804
		c16.641,13.396,38.451,20.096,65.438,20.096s54.496-3.552,82.529-10.655c14.018-3.526,25.316-7.079,33.898-10.656
		c0,7.726-2.67,16.427-8.01,26.104c-5.531,10.011-12.969,19.309-22.314,27.891c-22.693,20.834-48.391,31.253-77.092,31.253
		c-33.137,0-57.523-11.753-73.162-35.258C525.438,646.234,519.406,623.277,519.406,595.387"/>
	<path fill="#0D131A" d="M663.797,510.21c-11.014-4.004-22.955-6.39-35.83-7.151c-12.633-0.763-24.695,0.146-36.186,2.721
		c-11.824,2.621-21.67,6.721-29.537,12.299c-10.869,7.725-19.834,18.904-26.891,33.541c-7.008,14.59-10.988,30.275-11.943,47.059
		c-0.857,15.494,1.121,29.87,5.938,43.124s12.039,24.148,21.668,32.683c7.346,6.532,16.068,11.729,26.176,15.592
		c11.205,4.291,22.814,6.412,34.828,6.365c29.369-0.192,56.117-12.923,80.242-38.19c7.484-7.867,13.42-17.402,17.809-28.605
		c4.385-11.108,6.793-22.719,7.223-34.827c0.904-27.227-7.414-49.609-24.959-67.155C685.039,520.366,675.525,514.551,663.797,510.21
		 M670.52,505.634c11.063,4.529,19.787,9.99,26.176,16.378c9.346,9.346,16.33,20.524,20.955,33.541
		c4.291,12.11,6.293,24.982,6.008,38.617c-0.287,13.112-2.646,25.7-7.082,37.762c-4.48,12.109-10.607,22.407-18.379,30.896
		c-10.395,11.348-22.385,20.311-35.973,26.891c-13.063,6.341-26.725,10.083-40.979,11.229c-14.111,1.19-27.699-0.263-40.766-4.363
		c-13.443-4.194-25.314-10.869-35.613-20.023c-9.154-8.104-16.209-19.381-21.168-33.827c-4.91-14.256-7.08-29.416-6.51-45.482
		c0.619-16.879,4.221-32.445,10.801-46.701c7.293-15.638,17.566-28.152,30.822-37.547c20.264-14.352,45.461-19.833,75.594-16.447
		C647.277,497.982,659.316,501.012,670.52,505.634"/>
	<path fill="#0D131A" d="M79.012,626.353c-3.004-13.444-3.004-27.247,0-41.407c2.908-13.637,8.224-25.983,15.948-37.045
		c7.867-11.301,17.259-19.857,28.178-25.676c28.319-15.113,55.901-21.524,82.743-19.235c26.843,2.239,48.059,12.823,63.65,31.753
		c9.583,11.632,15.947,24.886,19.094,39.762c2.909,13.827,2.837,28.011-0.214,42.552c-2.956,14.065-8.391,27.011-16.306,38.834
		c-8.058,12.016-17.784,21.551-29.179,28.606c-9.297,5.769-20.072,10.06-32.325,12.872c-12.729,2.909-25.603,3.886-38.619,2.933
		c-30.466-2.241-54.924-13.945-73.375-35.114C88.786,653.934,82.253,640.99,79.012,626.353 M126.999,527.59
		c-10.441,5.578-19.31,13.73-26.604,24.459c-7.295,10.727-12.182,22.813-14.661,36.258c-2.527,13.923-2.122,27.414,1.216,40.479
		c3.29,13.063,9.249,24.555,17.879,34.471c16.83,19.312,39.262,29.99,67.296,32.04c12.444,0.905,24.721-0.143,36.831-3.146
		c12.063-3.053,22.79-7.746,32.182-14.09c11.777-7.912,21.312-17.663,28.607-29.25c7.342-11.584,12.015-24.243,14.017-37.974
		c1.907-13.16,1.192-26.009-2.146-38.547c-3.385-12.54-9.059-23.648-17.021-33.328c-14.685-17.879-34.518-27.843-59.501-29.893
		C180.11,506.969,154.08,513.145,126.999,527.59"/>
	<path fill="#FFFFFF" d="M152.745,468.303c3.1-0.523,9.559,2.719,19.381,9.729c10.775,7.723,17.45,15.039,20.024,21.953
		c1.668,4.531,0.024,9.918-4.935,16.162c-4.052,5.104-7.867,8.463-11.443,10.084c-3.337,1.526-7.771,1.955-13.302,1.287
		c-6.675-0.763-10.989-3.193-12.944-7.293c-2.051-4.291-2.432-14.041-1.145-29.25C149.668,476.1,151.124,468.542,152.745,468.303"/>
	<path fill="#DBDCDC" d="M148.311,492.618c3.385,6.58,8.224,12.921,14.518,19.022c6.913,6.771,12.849,10.346,17.808,10.729
		l0.5,0.069c-2.145,1.859-3.933,3.125-5.364,3.791c-3.337,1.525-7.771,1.955-13.302,1.287c-6.675-0.764-10.989-3.194-12.944-7.295
		c-1.001-2.099-1.597-5.841-1.788-11.229C147.596,504.227,147.786,498.77,148.311,492.618"/>
	<path fill="#FFFFFF" d="M76.223,519.079c4.958-1.813,14.064-0.646,27.319,3.505c12.92,4.053,20.406,7.816,22.456,11.3
		c1.716,2.955,1.692,7.984-0.071,15.089c-1.526,6.104-3.338,10.729-5.436,13.875c-1.717,2.621-6.413,4.553-14.089,5.793
		c-7.915,1.286-13.04,0.645-15.376-1.931c-2.622-2.957-6.198-11.396-10.728-25.315C75.673,527.232,74.314,519.795,76.223,519.079"/>
	<path fill="#DBDCDC" d="M99.822,549.475c9.821,7.914,17.14,11.655,21.956,11.228l-1.288,2.146
		c-1.717,2.621-6.413,4.553-14.089,5.793c-7.915,1.286-13.04,0.645-15.376-1.931c-1.907-2.146-4.625-8.106-8.153-17.881
		c-3.528-9.679-5.84-17.521-6.937-23.527C82.944,534.217,90.906,542.273,99.822,549.475"/>
	<path fill="#FFFFFF" d="M48.332,614.267c0-0.668,0.954-2.05,2.86-4.146c2.193-2.432,4.744-4.696,7.652-6.794
		c8.248-6.056,16.234-8.605,23.958-7.651c7.867,0.953,13.754,4.837,17.665,11.656c2.86,5.102,4.077,9.964,3.647,14.588
		c-0.429,4.578-1.812,8.562-4.148,11.944c-3.433,4.91-8.248,7.128-14.446,6.65c-6.58-0.524-14.566-4.361-23.958-11.514
		C52.742,622.276,48.332,617.365,48.332,614.267"/>
	<path fill="#DBDCDC" d="M62.563,629.715c-8.392-6.198-13.063-11.086-14.018-14.66c7.676,3.385,16.592,6.293,26.747,8.726
		c10.298,2.479,19.476,3.885,27.534,4.219c-1.239,3.766-3.076,6.723-5.507,8.869c-3.147,2.812-7.08,4.025-11.8,3.646
		C79.227,640.036,71.574,636.437,62.563,629.715"/>
	<path fill="#76491B" d="M167.12,660.18c-2.623-5.243-4.196-10.728-4.72-16.447c-1.335-14.208,3.743-25.961,15.233-35.258
		c11.157-8.964,24.887-13.444,41.193-13.444c6.103,0.048,11.657,0.714,16.663,2.003c4.577,1.239,7.438,2.599,8.582,4.075
		c8.344,11.062,11.157,22.6,8.439,34.612c-2.336,10.251-8.129,19.313-17.378,27.178c-8.344,7.104-18.594,11.635-30.752,13.589
		c-12.491,2.003-21.956,0.38-28.392-4.864C172.555,668.857,169.599,665.042,167.12,660.18"/>
	<path fill="#5C370C" d="M167.12,660.108c-2.623-5.244-4.22-10.751-4.792-16.521l20.24,1.002c23.313,0,47.009-5.555,71.087-16.663
		c-0.287,6.104-2.218,12.563-5.793,19.381c-3.48,6.626-7.724,12.063-12.729,16.307c-8.296,7.057-18.547,11.466-30.752,13.229
		c-12.444,1.766-21.908,0.023-28.392-5.221C172.555,668.81,169.599,664.973,167.12,660.108"/>
	<path fill="#76491B" d="M598.932,664.758c-15.828,1.239-27.508-2.671-35.041-11.729c-7.344-8.82-10.371-19.596-9.084-32.326
		c1.098-10.631,4.125-18.426,9.084-23.386c7.627-7.626,19.43-10.988,35.398-10.083c6.818,0.382,12.922,1.621,18.309,3.72
		c5.578,2.146,9.369,4.814,11.371,8.01c5.197,8.247,8.561,17.475,10.084,27.676c1.859,12.444-0.404,21.24-6.795,26.391
		C623.916,659.751,612.807,663.66,598.932,664.758"/>
	<path fill="#FFFFFF" d="M623.248,478.889c12.539-10.967,19.906-15.974,22.098-15.02c2.193,1.001,3.123,9.561,2.789,25.675
		c-0.334,15.304-1.07,24.243-2.217,26.817c-0.857,2.052-4.219,3.267-10.084,3.646c-6.102,0.43-11.133-0.404-15.09-2.503
		c-4.957-2.671-9.248-5.792-12.871-9.368c-4.387-4.242-5.912-7.51-4.578-9.799C604.773,495.717,611.424,489.232,623.248,478.889"/>
	<path fill="#DBDCDC" d="M645.918,516.361c-0.857,2.052-4.219,3.267-10.084,3.646c-6.102,0.43-11.133-0.404-15.09-2.503
		l-4.146-2.503c7.057,2.385,13.898-1.74,20.525-12.372c5.672-9.155,9.154-18.784,10.439-28.894l0.287-0.215
		c0.477,6.676,0.451,15.259-0.072,25.746C647.205,509.091,646.586,514.788,645.918,516.361"/>
	<path fill="#FFFFFF" d="M677.1,516.936c2.385-2.719,10.227-5.651,23.529-8.799c13.205-3.146,20.479-3.861,21.813-2.145
		c1,1.238-1.813,8.843-8.438,22.813c-6.486,13.684-10.42,21.024-11.801,22.026c-1.049,0.812-4.482,0.119-10.299-2.073
		c-5.674-2.193-10.063-4.41-13.158-6.65c-2.957-2.192-4.604-6.271-4.938-12.229C673.475,524.014,674.572,519.698,677.1,516.936"/>
	<path fill="#DBDCDC" d="M714.002,528.807c-6.484,13.683-10.418,21.023-11.801,22.025c-1.049,0.813-4.48,0.119-10.297-2.073
		c-5.676-2.192-10.063-4.409-13.16-6.651c-1.525-1.098-2.693-2.813-3.504-5.148l2.932,1.859c6.961,5.102,15.494,2.432,25.604-8.012
		c3.91-4.004,10.131-12.275,18.666-24.813C723.441,507.23,720.629,514.835,714.002,528.807"/>
	<path fill="#FFFFFF" d="M709.496,587.663c2.289-4.863,4.602-7.295,6.938-7.295s8.748,2.336,19.236,7.008
		c10.871,4.864,16.307,8.178,16.307,9.94c0,1.766-4.576,5.364-13.73,10.801c-8.916,5.244-14.73,8.009-17.449,8.296
		c-2.383,0.285-5.293-1.717-8.725-6.009c-3.387-4.147-5.221-7.794-5.508-10.941C706.277,596.222,707.256,592.288,709.496,587.663"/>
	<path fill="#DBDCDC" d="M714.074,612.693c-2.48-2.526-4.482-5.363-6.008-8.511l22.17-3.075l21.455-4.435l0.285,0.644
		c0,1.766-4.576,5.364-13.73,10.801c-8.916,5.244-14.732,8.009-17.449,8.296C718.984,616.603,716.744,615.363,714.074,612.693"/>
	<path fill="#5C370C" d="M598.932,664.758c-15.828,1.239-27.508-2.671-35.041-11.729c-6.057-7.199-9.152-15.924-9.299-26.175
		c13.922,5.816,29.609,8.725,47.059,8.725l37.904-2.359c0.236,9.106-2.193,15.71-7.297,19.811
		C623.916,659.751,612.807,663.66,598.932,664.758"/>
	<path fill="#0D131A" d="M566.68,650.812c8.01,7.963,18.379,11.847,31.107,11.656c12.684-0.143,23.744-4.339,33.184-12.587
		c4.34-3.814,6.438-10.156,6.295-19.022c-0.096-6.246-1.359-12.35-3.791-18.309c-2.385-6.008-5.387-10.466-9.01-13.373
		c-6.914-5.627-15.447-8.82-25.604-9.584c-11.016-0.811-20.789,1.621-29.322,7.296c-3.623,2.432-6.531,5.601-8.725,9.511
		c-2.193,3.957-3.553,8.416-4.076,13.375c-0.572,5.815,0.049,11.536,1.857,17.161C560.41,642.563,563.104,647.187,566.68,650.812
		 M565.535,590.738c9.488-6.294,20.596-8.749,33.326-7.367c11.488,1.241,21.191,5.078,29.105,11.515
		c8.916,7.248,14.256,17.546,16.021,30.896c1.811,13.492-1.002,23.506-8.439,30.037c-10.156,8.866-22.479,13.23-36.975,13.087
		c-14.59-0.144-26.531-4.862-35.828-14.16c-9.012-9.01-13.064-20.5-12.158-34.47C551.445,606.639,556.428,596.794,565.535,590.738"
		/>
	<path fill="#0D131A" d="M646.133,486.039c0-9.966-0.381-16.473-1.145-19.523c-3.576,1.43-10.322,6.127-20.238,14.088
		c-10.012,8.059-16.115,13.756-18.309,17.094c-0.523,0.715-0.787,1.525-0.787,2.431l0.287,1.789
		c0.715,2.288,2.551,4.673,5.506,7.151c2.908,2.432,6.246,4.361,10.014,5.793c5.387,2.097,10.369,2.979,14.945,2.646
		c4.293-0.286,6.891-1.478,7.795-3.575c0.574-1.384,1.049-4.91,1.432-10.584C645.967,498.102,646.133,492.333,646.133,486.039
		 M639.268,463.081c4.436-2.479,7.295-3.455,8.582-2.933c1.24,0.525,2.266,3.029,3.074,7.511c1.098,6.341,1.289,15.78,0.572,28.319
		c-0.619,11.396-1.383,18.142-2.287,20.24c-1.67,3.813-5.34,6.174-11.014,7.078c-5.816,0.906-12.135,0.049-18.953-2.574
		c-6.865-2.621-12.063-6.604-15.59-11.941c-3.576-5.483-3.98-10.299-1.217-14.447c2.146-3.146,7.225-8.199,15.232-15.161
		C626.299,471.641,633.498,466.275,639.268,463.081"/>
	<path fill="#0D131A" d="M720.08,507.207c-4.004,0.098-11.25,1.525-21.74,4.292c-10.537,2.813-16.641,4.957-18.309,6.437
		c-2.383,2.051-3.623,4.814-3.721,8.295v0.215c0,2.72,0.717,5.556,2.146,8.512c1.479,2.907,3.48,5.506,6.008,7.795
		c2.289,2.146,5.555,3.814,9.797,5.006c3.814,1.098,6.295,1.359,7.439,0.788c1.621-1.718,4.887-8.034,9.797-18.954
		C716.504,518.482,719.365,511.02,720.08,507.207 M675.67,513.572c1.764-1.526,6.84-3.553,15.232-6.078
		c8.438-2.526,15.898-4.244,22.385-5.148c6.482-0.908,10.393-0.834,11.727,0.213c1.242,1.051,1.193,3.957-0.143,8.726
		c-1.859,6.532-5.029,14.853-9.51,24.959c-4.723,10.489-7.986,16.329-9.801,17.522c-2.336,1.573-6.436,1.549-12.301-0.072
		c-5.672-1.573-10.035-3.742-13.086-6.508c-5.721-5.244-8.844-11.49-9.367-18.736C670.281,521.82,671.902,516.861,675.67,513.572"/>
	<path fill="#0D131A" d="M716.146,583.157c-1.668,0.143-3.266,1.979-4.791,5.508c-1.572,3.67-2.24,7.414-2.004,11.227
		c0.24,3.528,1.551,6.651,3.936,9.369c2.289,2.574,4.625,3.862,7.008,3.862c2.098,0,6.961-2.146,14.59-6.437
		c7.58-4.244,12.49-7.533,14.732-9.87c-2.91-2.098-8.582-4.935-17.021-8.511C723.775,584.635,718.293,582.919,716.146,583.157
		 M706.422,585.445c2.525-4.91,5.604-7.532,9.227-7.866c3.24-0.333,10.346,1.835,21.311,6.508
		c11.156,4.721,17.355,8.344,18.596,10.871c0.666,1.19,0.547,2.479-0.357,3.862c-1.766,2.907-7.225,6.937-16.379,12.086
		c-9.105,5.196-15.279,7.795-18.521,7.795c-4.053,0-7.818-1.883-11.299-5.65c-3.576-3.813-5.508-8.104-5.793-12.872
		C702.869,595.077,703.941,590.165,706.422,585.445"/>
	<path fill="#0D131A" d="M178.562,611.478c-8.676,6.962-13.42,15.64-14.231,26.032c-0.763,9.394,1.692,18.045,7.366,25.959
		c4.625,6.438,12.801,9.729,24.53,9.871c11.967,0.19,22.456-3.027,31.467-9.655c12.158-8.963,19.738-17.879,22.742-26.747
		c3.052-8.867,1.764-18.355-3.862-28.463c-2.002-3.622-5.554-6.438-10.656-8.438c-5.006-1.909-10.799-2.814-17.379-2.72
		C203.473,597.509,190.146,602.228,178.562,611.478 M157.464,636.723c0.954-12.729,6.508-23.146,16.663-31.252
		c11.538-9.249,25.865-13.97,42.981-14.159c7.914-0.097,14.828,1.049,20.74,3.433c6.388,2.526,10.918,6.198,13.587,11.014
		c6.389,11.442,7.915,22.241,4.577,32.396c-3.337,10.203-11.681,20.217-25.03,30.038c-9.727,7.103-20.835,10.631-33.327,10.584
		c-12.92-0.097-23.076-4.124-30.466-12.086C159.799,658.728,156.559,648.738,157.464,636.723"/>
	<path fill="#0D131A" d="M153.674,471.379c-0.715,1.905-1.407,5.721-2.074,11.441c-0.667,6.15-1.001,12.109-1.001,17.88
		c0,9.058,0.858,15.137,2.575,18.235c0.954,1.572,4.124,2.86,9.512,3.861l14.231-0.501c3.338-1.286,6.508-4.052,9.512-8.296
		c2.718-3.908,4.077-7.031,4.077-9.369l-0.072-0.785c-2.336-8.152-8.438-15.828-18.308-23.027
		C164.116,474.953,157.964,471.807,153.674,471.379 M150.67,466.301c1.621-0.904,4.601-0.548,8.939,1.073
		c4.434,1.716,9.083,4.29,13.945,7.724c12.396,8.678,20.048,18.117,22.957,28.319c1.001,3.528-0.525,8.153-4.577,13.875
		c-4.005,5.673-8.32,9.392-12.944,11.156c-4.768,1.858-10.703,2.05-17.807,0.571c-7.057-1.478-11.467-3.767-13.231-6.865
		c-2.718-4.768-3.695-14.852-2.932-30.252C145.832,476.504,147.714,467.969,150.67,466.301"/>
	<path fill="#0D131A" d="M73.862,517.648c3.337-3.385,11.633-3.551,24.887-0.5c13.541,3.099,23.338,7.675,29.394,13.73
		c2.813,2.813,3.433,8.844,1.859,18.092c-1.621,9.488-4.601,15.663-8.939,18.523c-4.863,3.242-10.87,4.888-18.022,4.936
		c-7.056,0.047-11.943-1.479-14.661-4.578c-2.241-2.572-5.721-10.656-10.441-24.242C72.742,528.78,71.382,520.129,73.862,517.648
		 M82.801,520.581c-2.051,0-3.6,0.263-4.649,0.787l-0.071,0.429c0,3.385,1.812,10.633,5.435,21.741
		c3.671,11.203,6.413,17.854,8.225,19.952c1.621,1.859,5.149,2.718,10.584,2.574c5.817-0.19,10.704-1.597,14.661-4.219
		c1.813-1.193,3.41-3.291,4.792-6.295c1.43-3.05,2.431-6.459,3.003-10.227c0.333-2.526,0.429-4.791,0.286-6.795
		c-0.143-1.62-0.381-2.646-0.715-3.073c-3.337-3.338-9.607-6.651-18.809-9.94S88.762,520.581,82.801,520.581"/>
	<path fill="#0D131A" d="M70.572,601.967c-7.962,3.1-13.683,6.316-17.164,9.653c-1.716,1.622-2.526,2.979-2.431,4.077
		c0.238,3.576,4.577,7.962,13.016,13.157c8.105,5.008,14.589,7.677,19.452,8.013c5.245,0.38,9.535-1.05,12.873-4.293
		c3.004-2.859,4.792-6.556,5.364-11.084l0.072-2.217c0-2.433-0.43-4.863-1.288-7.297c-0.906-2.525-2.146-4.79-3.719-6.794
		c-3.289-4.193-7.223-6.555-11.8-7.079C82.563,597.866,77.771,599.153,70.572,601.967 M61.347,633.647
		c-10.25-6.198-15.566-12.063-15.948-17.594c-0.334-4.861,5.053-10.227,16.163-16.091c10.537-5.578,18.666-8.058,24.387-7.438
		c5.53,0.618,10.798,3.646,15.805,9.083c5.53,6.103,7.866,12.635,7.008,19.595c-0.811,6.485-3.552,11.775-8.225,15.877
		c-4.768,4.148-10.275,5.982-16.52,5.507C78.059,642.158,70.5,639.178,61.347,633.647"/>
</g>
</svg>
